<svg width="70" height="65" viewBox="0 0 70 65" fill="none" xmlns="http://www.w3.org/2000/svg">
<rect width="70" height="64.45" rx="5" fill="#6CC8AA"/>
<path d="M25.5035 49.44C24.3301 49.44 23.5051 49.2017 23.0285 48.725C22.5518 48.2483 22.3135 47.4783 22.3135 46.415V14.845C22.3135 14.1117 22.5885 13.4883 23.1385 12.975C23.6885 12.425 24.3118 12.15 25.0085 12.15H34.3585C36.9985 12.15 39.2535 12.6083 41.1235 13.525C43.0301 14.405 44.4601 15.5967 45.4135 17.1C46.3668 18.5667 46.8435 20.1617 46.8435 21.885C46.8435 24.635 46.0001 26.9267 44.3135 28.76C46.1835 29.64 47.5768 30.8133 48.4935 32.28C49.4101 33.71 49.8685 35.4883 49.8685 37.615C49.8685 41.4283 47.8335 44.3617 43.7635 46.415C39.6935 48.4317 33.6068 49.44 25.5035 49.44ZM36.2285 27.055C37.7318 27.055 38.9601 26.5417 39.9135 25.515C40.9035 24.4517 41.3985 23.26 41.3985 21.94C41.3985 20.6567 40.7751 19.5933 39.5285 18.75C38.3185 17.87 36.5951 17.43 34.3585 17.43H27.8135V27.055H36.2285ZM27.8135 44.215C32.6901 44.1417 36.6685 43.555 39.7485 42.455C42.8651 41.355 44.4235 39.7417 44.4235 37.615C44.4235 36.0383 43.7085 34.7733 42.2785 33.82C40.8485 32.83 38.8318 32.335 36.2285 32.335H27.8135V44.215Z" fill="white"/>
</svg>
